<?xml version="1.0" encoding="UTF-8" standalone="no"?>
<!-- Created with Inkscape (http://www.inkscape.org/) -->

<svg
   xmlns:svg="http://www.w3.org/2000/svg"
   xmlns="http://www.w3.org/2000/svg"
   version="1.1"
   xml:space="preserve"

   id="svg4170">
  <defs
     id="defs4172">
     <style type="text/css">


   .state {fill:#000;}

    #HI {
    width: 100%;
    height: 100%;
    }

     </style>
   </defs>
  <g
     id="layer1" class="state"
     transform="translate(291,559)"
     >
       <path class="WA" d="M291.86,559l4.67,3.63s3.73,4.84,3.73,6v7.86s1.24,4.53,1.55,5.74-1.55,8.47-1.55,8.47l1.58,8.77,6.5,5.74,5,3.33L317,611a7.2,7.2,0,0,1,4,0c2.49.6,9.33,1.51,9.33,1.51h8.7l3.11-2.72,5-1.82,7.47.91,6.21,3.63,7.46,1.81,4.67,2.42s2.48,1.51,4,2.72,7.46,5.14,7.46,5.14a54.67,54.67,0,0,0,5.59,1.21h10.57s5.6-1.21,6.53-1.21h9.33l5.28,4.84h2.8l6.84,1.81h9s7.77-3.32,9.33-3.32,9.32-.61,9.32-.61h9.64l8.7-1.51,6.84.3h19.9s6.84,1.21,7.77,1.82,11.19,3.32,11.19,3.32,4.35,1.21,6.53,2.12,10.88,3,10.88,3l10,1.51L562,640.6h9.63l14.61,4.54h3.42l5.29,4.53h9l8.09,1.52,1.17-1.33h0l2.56-2.91s2.17-3,2.17-4.23V611.58l44.82-182.15c-85.16-20.11-183-44.72-291.64-74.23l3.11,16.93s16.47,7.26,12.74,15.42-17.25,3.18-15.85,10.88,15.37,16.33,8.15,32.66-17,1.81-28.2,20-12.12,9.07-8.86,2.27,16.32-15.42,17.72-23.58-42.43-20.86-54.09-32.2S280.67,369.41,269.48,374s-14.92,19.95-10.26,41.72-.66,49.88-2,61.22,11.75-3.63,12.69,0-10.26,7.26-10.26,16.78,8.86-.45,8.86,10.43-11.66-.45-14.92,5.9-3.73,20.4,0,24.94,14,4.53,17.72,5.44,12.12,4.54,10.72,9.07a1,1,0,0,1-.24.4l4.75,3.08Z" transform="translate(0 0)"/>
  </g>
</svg>
