<?xml version="1.0" encoding="UTF-8" standalone="no"?>
<!-- Created with Inkscape (http://www.inkscape.org/) -->

<svg
   xmlns:svg="http://www.w3.org/2000/svg"
   xmlns="http://www.w3.org/2000/svg"
   version="1.1"
   width="1028.53"
   height="645.45587"
   id="svg4170">
  <defs
     id="defs4172" />
  <g
     transform="translate(305.75121,-96.187146)"
     id="layer1">
    <path
       d="m 721.71678,741.643 -4.30091,-7.18615 -11.73296,1.93448 -1.43668,-3.72504 c -0.81279,-2.06347 -3.47611,-5.49156 -5.99247,-7.68699 l -4.5618,-3.93798 2.31241,-10.4344 -4.59483,-2.93622 -11.06119,-0.063 v -5.01773 l -15.64095,-7.12618 -5.19467,1.99749 -3.81203,-4.60381 -14.06043,-3.98897 -5.18567,1.99445 -3.53607,-3.54209 -8.71873,-3.56309 -0.50091,-7.54906 -19.01211,-1.31366 -15.29612,0.93876 -45.17741,1.1757 -6.87725,-3.68606 -6.67329,2.11146 -2.17747,9.12667 -8.68578,9.33958 h -10.51827 l -13.53851,-13.48753 -2.9573,-0.063 c -1.66454,-0.033 -5.83349,-1.5626 -9.3096,-3.43712 -3.48812,-1.86552 -7.68706,-3.43412 -9.33661,-3.43412 h -3.00525 v -3.29916 l -18.77215,-8.88372 -4.86781,-9.43558 c -272.81911,1.29567 -497.350668,-2.31242 -753.24517,-10.68627 15.13413,-365.27351 18.10637,-364.19379 25.33151,-544.987514 319.901126,10.395344 647.66622,15.536024 967.56432,3.575088 v 16.684726 l -4.24688,6.2564 c -2.3124,3.43712 -4.25296,7.0242 -4.25296,7.95697 0,0.93876 -2.87025,3.81502 -6.37337,6.43634 -3.50305,2.62134 -9.63052,7.93597 -13.58349,11.81098 l -7.20419,7.0482 v 6.39137 l 13.05868,15.83894 2.25541,5.65656 c 1.2417,3.11319 3.68911,7.783 5.48264,10.33535 l 3.18813,4.6878 h 10.07444 l 16.19589,8.2029 4.47481,9.65153 c 4.37588,111.3615 8.74582,222.71099 13.11568,334.09648 l -19.05411,1.01975 -1.10373,12.56078 11.68501,10.29336 -2.06347,15.00817 -5.17367,-0.4379 c -0.62687,2.89127 -0.83379,5.56358 0.063,8.43685 0.62085,0.97475 1.18775,2.88826 1.18775,4.18692 l 0.0572,2.43838 9.93646,2.67832 2.81332,-1.77555 0.16195,1.37965 c 0.063,0.7798 0.52488,3.68606 0.93873,6.43635 0.44095,2.78628 1.56264,5.93548 2.43843,6.96122 l 1.56256,1.9375 -2.06347,10.31136 -8.49383,3.86301 1.18774,2.93625 c 0.6478,1.61659 1.31363,5.8725 1.43661,9.43558 l 0.29094,6.56233 -4.25289,3.52709 v 14.99917 l -4.81081,1.83852 -1.06172,4.3129 c -0.58486,2.39339 -2.18645,5.43759 -3.56309,6.81125 l -2.43836,2.43836 c -0.18896,3.81203 0.31188,7.56111 1.06172,11.22017 l 16.03387,14.23136 3.31119,8.55982 v 6.56226 h 2.6933 v 5.93554 c 0.081,3.46705 -0.14101,6.15738 -0.39292,6.15738 z"
       id="SD_At-Large"
       style="fill:#000000" />
  </g>
</svg>
