<?xml version="1.0" encoding="UTF-8" standalone="no"?>
      <svg
         xmlns:svg="http://www.w3.org/2000/svg"
         xmlns="http://www.w3.org/2000/svg"
         version="1.1"
         width="65.39999999999986px"
         height="108.40000000000003px"
         id="svg-AL">
        <defs
           id="defs-AL" />
        <!--
          Bounds: {"minX":621.2000000000003,"x1":621.2000000000003,"minY":360.9,"y1":360.9,"maxX":686.6000000000001,"x2":686.6000000000001,"maxY":469.3,"y2":469.3,"width":65.39999999999986,"height":108.40000000000003}
        -->
        <g
           transform="translate(65.39999999999986,108.40000000000003)"
           id="state-layer">
          <path id="AL" d="M628.5 466.4l.6.2 1.3-2.7 1.5-4.4 2.3.6 3.1 6v1l-2.7 1.9 2.7.3 5.2-2.5-.3-7.6-2.5-1.8-2-2 .4-4 10.5-1.5 25.7-2.9 6.7-.6 5.6.1-.5-2.2-1.5-.8-.9-1.1 1-2.6-.4-5.2-1.6-4.5.8-5.1 1.7-4.8-.2-1.7-1.8-.7-.5-3.6-2.7-3.4-2-6.5-1.4-6.7-1.8-5-3.8-16-3.5-7.9-.8-5.6.1-2.2-9 .8-23.4 2.2-12.2.8-.2 6.4.2 16.7-.7 31-.3 14.1 2.8 18.8 1.6 14.7z"></path>
        </g>
      </svg>