<?xml version="1.0" encoding="UTF-8" standalone="no"?>
      <svg
         xmlns:svg="http://www.w3.org/2000/svg"
         xmlns="http://www.w3.org/2000/svg"
         version="1.1"
         width="86.10000000000025px"
         height="78.39999999999998px"
         id="svg-AR">
        <defs
           id="defs-AR" />
        <!--
          Bounds: {"minX":504.9000000000001,"x1":504.9000000000001,"minY":334.5,"y1":334.5,"maxX":591.0000000000003,"x2":591.0000000000003,"maxY":412.9,"y2":412.9,"width":86.10000000000025,"height":78.39999999999998}
        -->
        <g
           transform="translate(86.10000000000025,78.39999999999998)"
           id="state-layer">
          <path id="AR" d="M587.3 346.1l-6.4-.7.9-3.1 3.1-2.6.6-2.3-1.8-2.9-31.9 1.2-23.3.7-23.6.3 1.5 6.9.1 8.5 1.4 10.9.3 38.2 2.1 1.6 3-1.2 2.9 1.2.4 10.1 25.2-.2 26.8-.8.9-1.9-.3-3.8-1.7-3.1 1.5-1.4-1.4-2.2.7-2.4 1.1-5.9 2.7-2.3-.8-2.2 4-5.6 2.5-1.1-.1-1.7-.5-1.7 2.9-5.8 2.5-1.1.2-3.3 2.1-1.4.9-4.1-1.4-4 4.2-2.4.3-2.1 1.2-4.2.9-3.1z"></path>
        </g>
      </svg>