<?xml version="1.0" encoding="UTF-8" standalone="no"?>
      <svg
         xmlns:svg="http://www.w3.org/2000/svg"
         xmlns="http://www.w3.org/2000/svg"
         version="1.1"
         width="118.10000000000002px"
         height="138.30000000000007px"
         id="svg-AZ">
        <defs
           id="defs-AZ" />
        <!--
          Bounds: {"minX":134.79999999999998,"x1":134.79999999999998,"minY":295.8999999999999,"y1":295.8999999999999,"maxX":252.9,"x2":252.9,"maxY":434.2,"y2":434.2,"width":118.10000000000002,"height":138.30000000000007}
        -->
        <g
           transform="translate(118.10000000000002,138.30000000000007)"
           id="state-layer">
          <path id="AZ" d="M135.1 389.7l-.3 1.5.5 1 18.9 10.7 12.1 7.6 14.7 8.6 16.8 10 12.3 2.4 25.4 2.7 6-39.6 7-53.1 4.4-31-24.6-3.6-60.7-11-.2 1.1-2.6 16.5-2.1 3.8-2.8-.2-1.2-2.6-2.6-.4-1.2-1.1-1.1.1-2.1 1.7-.3 6.8-.3 1.5-.5 12.5-1.5 2.4-.4 3.3 2.8 5 1.1 5.5.7 1.1 1.1.9-.4 2.4-1.7 1.2-3.4 1.6-1.6 1.8-1.6 3.6-.5 4.9-3 2.9-1.9.9-.1 5.8-.6 1.6.5.8 3.9.4-.9 3-1.7 2.4-3.7.4z"></path>
        </g>
      </svg>