<?xml version="1.0" encoding="UTF-8" standalone="no"?>
      <svg
         xmlns:svg="http://www.w3.org/2000/svg"
         xmlns="http://www.w3.org/2000/svg"
         version="1.1"
         width="159.30000000000018px"
         height="134.5px"
         id="svg-FL">
        <defs
           id="defs-FL" />
        <!--
          Bounds: {"minX":638.7,"x1":638.7,"minY":444.5,"y1":444.5,"maxX":798.0000000000002,"x2":798.0000000000002,"maxY":579,"y2":579,"width":159.30000000000018,"height":134.5}
        -->
        <g
           transform="translate(159.30000000000018,134.5)"
           id="state-layer">
          <path id="FL" d="M750.2 445.2l-5.2-.7-.7.8 1.5 4.4-.4 5.2-4.1-1-.2-2.8H737l-5.3.7-32.4 1.9-8.2-.3-1.7-1.7-2.5-4.2H681l-6.6.5-35.4 4.2-.3 2.8 1.6 1.6 2.9 2 .3 8.4 3.3-.6 6-2.1 6-.5 4.4-.6 7.6 1.8 8.1 3.9 1.6 1.5 2.9 1.1 1.6 1.9.3 2.7 3.2-1.3h3.9l3.6-1.9 3.7-3.6 3.1.2.5-1.1-.8-1 .2-1.9 4-.8h2.6l2.9 1.5 4.2 1.5 2.4 3.7 2.7 1 1.1 3.4 3.4 1.6 1.6 2.6 1.9.6 5.2 1.3 1.3 3.1 3 3.7v9.5l-1.5 4.7.3 2.7 1.3 4.8 1.8 4 .8-.5 1.5-4.5-2.6-1-.3-.6 1.6-.6 4.5 1 .2 1.6-3.2 5.5-2.1 2.4 3.6 3.7 2.6 3.1 2.9 5.3 2.9 3.9 2.1 5 1.8.3 1.6-2.1 1.8 1.1 2.6 4 .6 3.6 3.1 4.4.8-1.3 3.9.3 3.6 2.3 3.4 5.2.8 3.4.3 2.9 1.1 1 1.3.5 2.4-1 1.5-1.6 3.9-.2 3.1-1.5 2.7-3.2-.5-1.9-.3-2.4.6-1.9-.3-1.9 2.4-1.3.3-3.4-.6-1.8-.5-12-1.3-7.6-4.5-8.2-3.6-5.8-2.6-5.3-2.9-2.9-2.9-7.4.7-1.4 1.1-1.3-1.6-2.9-4-3.7-4.8-5.5-3.7-6.3-5.3-9.4-3.7-9.7-2.3-7.3zm17.7 132.7l2.4-.6 1.3-.2 1.5-2.3 2.3-1.6 1.3.5 1.7.3.4 1.1-3.5 1.2-4.2 1.5-2.3 1.2zm13.5-5l1.2 1.1 2.7-2.1 5.3-4.2 3.7-3.9 2.5-6.6 1-1.7.2-3.4-.7.5-1 2.8-1.5 4.6-3.2 5.3-4.4 4.2-3.4 1.9z"></path>
        </g>
      </svg>