<?xml version="1.0" encoding="UTF-8" standalone="no"?>
      <svg
         xmlns:svg="http://www.w3.org/2000/svg"
         xmlns="http://www.w3.org/2000/svg"
         version="1.1"
         width="93.39999999999998px"
         height="97.90000000000009px"
         id="svg-GA">
        <defs
           id="defs-GA" />
        <!--
          Bounds: {"minX":667.7000000000002,"x1":667.7000000000002,"minY":355.7999999999999,"y1":355.7999999999999,"maxX":761.1000000000001,"x2":761.1000000000001,"maxY":453.7,"y2":453.7,"width":93.39999999999998,"height":97.90000000000009}
        -->
        <g
           transform="translate(93.39999999999998,97.90000000000009)"
           id="state-layer">
          <path id="GA" d="M750.2 444.2l-5.6-.7-1.4 1.6 1.6 4.7-.3 3.9-2.2-.6-.2-3h-5.2l-5.3.7-32.3 1.9-7.7-.3-1.4-1.2-2.5-4.3-.8-3.3-1.6-.9-.5-.5.9-2.2-.4-5.5-1.6-4.5.8-4.9 1.7-4.8-.2-2.5-1.9-.7-.4-3.2-2.8-3.5-1.9-6.2-1.5-7-1.7-4.8-3.8-16-3.5-8-.8-5.3.1-2.3 3.3-.3 13.6-1.6 18.6-2 6.3-1.1.5 1.4-2.2.9-.9 2.2.4 2 1.4 1.6 4.3 2.7 3.2-.1 3.2 4.7.6 1.6 2.3 2.8.5 1.7 4.7 1.8 3 2.2 2.3 3 2.3 1.3 2 1.8 1.4 2.7 2.1 1.9 4.1 1.8 2.7 6 1.7 5.1 2.8.7 2.1 1.9 2 5.7 2.9 1.6 1.7-.8.4 1.2-3.3 6.2.5 2.6-1.5 4.2-2.3 10 .8 6.3z"></path>
        </g>
      </svg>