<?xml version="1.0" encoding="UTF-8" standalone="no"?>
      <svg
         xmlns:svg="http://www.w3.org/2000/svg"
         xmlns="http://www.w3.org/2000/svg"
         version="1.1"
         width="103.90000000000015px"
         height="68.29999999999998px"
         id="svg-IA">
        <defs
           id="defs-IA" />
        <!--
          Bounds: {"minX":471.09999999999974,"x1":471.09999999999974,"minY":180.30000000000004,"y1":180.30000000000004,"maxX":574.9999999999999,"x2":574.9999999999999,"maxY":248.60000000000002,"y2":248.60000000000002,"width":103.90000000000015,"height":68.29999999999998}
        -->
        <g
           transform="translate(103.90000000000015,68.29999999999998)"
           id="state-layer">
          <path id="IA" d="M556.8 183.6l2.1 2.1.3.7-2 3 .3 4 2.6 4.1 3.1 1.6 2.4.3.9 1.8.2 2.4 2.5 1 .9 1.1.5 1.6 3.8 3.3.6 1.9-.7 3-1.7 3.7-.6 2.4-2.1 1.6-1.6.5-5.7 1.5-1.6 4.8.8 1.8 1.7 1.5-.2 3.5-1.9 1.4-.7 1.8v2.4l-1.4.4-1.7 1.4-.5 1.7.4 1.7-1.3 1-2.3-2.7-1.4-2.8-8.3.8-10 .6-49.2 1.2-1.6-4.3-.4-6.7-1.4-4.2-.7-5.2-2.2-3.7-1-4.6-2.7-7.8-1.1-5.6-1.4-1.9-1.3-2.9 1.7-3.8 1.2-6.1-2.7-2.2-.3-2.4.7-2.4 1.8-.3 61.1-.6 21.2-.7z"></path>
        </g>
      </svg>