<?xml version="1.0" encoding="UTF-8" standalone="no"?>
      <svg
         xmlns:svg="http://www.w3.org/2000/svg"
         xmlns="http://www.w3.org/2000/svg"
         version="1.1"
         width="103.70000000000002px"
         height="167.47000000000003px"
         id="svg-ID">
        <defs
           id="defs-ID" />
        <!--
          Bounds: {"minX":141.19999999999993,"x1":141.19999999999993,"minY":27.63,"y1":27.63,"maxX":244.89999999999995,"x2":244.89999999999995,"maxY":195.10000000000002,"y2":195.10000000000002,"width":103.70000000000002,"height":167.47000000000003}
        -->
        <g
           transform="translate(103.70000000000002,167.47000000000003)"
           id="state-layer">
          <path id="ID" d="M175.3 27.63l-4.8 17.41L166 65.9l-3.4 16.22-.4 9.67 1.2 4.44 3.5 2.66-.2 3.91-3.9 4.4-4.5 6.6-.9 2.9-1.2 1.1-1.8.8-4.3 5.3-.4 3.1-.4 1.1.6 1 2.6-.1 1.1 2.3-2.4 5.8-1.2 4.2-8.8 35.3 20.7 4.5 39.5 7.9 34.8 6.1 4.9-29.2 3.8-24.1-2.7-2.4-.4-2.6-.8-1.1-2.1 1-.7 2.6-3.2.5-3.9-1.6-3.8.1-2.5.7-3.4-1.5-2.4.2-2.4 2-2-1.1-.7-4 .7-2.9-2.5-2.9-3.3-2.6-2.7-13.1-.1-4.7-.3-.1-.2.4-5.1 3.5-1.7-.2-2.9-3.4-.2-3.1 7-17.13-.4-1.94-3.4-1.15-.6-1.18-2.6-3.46-4.6-10.23-3.2-1.53-2-4.95 1.3-4.63-3.2-7.58 4.4-21.52z"></path>
        </g>
      </svg>