<?xml version="1.0" encoding="UTF-8" standalone="no"?>
      <svg
         xmlns:svg="http://www.w3.org/2000/svg"
         xmlns="http://www.w3.org/2000/svg"
         version="1.1"
         width="68.79999999999995px"
         height="123.50000000000006px"
         id="svg-IL">
        <defs
           id="defs-IL" />
        <!--
          Bounds: {"minX":556.0000000000003,"x1":556.0000000000003,"minY":198.10000000000002,"y1":198.10000000000002,"maxX":624.8000000000003,"x2":624.8000000000003,"maxY":321.6000000000001,"y2":321.6000000000001,"width":68.79999999999995,"height":123.50000000000006}
        -->
        <g
           transform="translate(68.79999999999995,123.50000000000006)"
           id="state-layer">
          <path id="IL" d="M618.7 214.3l-.8-2.6-1.3-3.7-1.6-1.8-1.5-2.6-.4-5.5-15.9 1.8-17.4 1h-12.3l.2 2.1 2.2.9 1.1 1.4.4 1.4 3.9 3.4.7 2.4-.7 3.3-1.7 3.7-.8 2.7-2.4 1.9-1.9.6-5.2 1.3-1.3 4.1.6 1.1 1.9 1.8-.2 4.3-2.1 1.6-.5 1.3v2.8l-1.8.6-1.4 1.2-.4 1.2.4 2-1.6 1.3-.9 2.8.3 3.9 2.3 7 7 7.6 5.7 3.7v4.4l.7 1.2 6.6.6 2.7 1.4-.7 3.5-2.2 6.2-.8 3 2 3.7 6.4 5.3 4.8.8 2.2 5.1 2 3.4-.9 2.8 1.5 3.8 1.7 2.1 1.6-.3 1-2.2 2.4-1.7 2.8-1 6.1 2.5.5-.2v-1.1l-1.2-2.7.4-2.8 2.4-1.6 3.4-1.2-.5-1.3-.8-2 1.2-1.3 1-2.7v-4l.4-4.9 2.5-3 1.8-3.8 2.5-4-.5-5.3-1.8-3.2-.3-3.3.8-5.3-.7-7.2-1.1-15.8-1.4-15.3-.9-11.7z"></path>
        </g>
      </svg>