<?xml version="1.0" encoding="UTF-8" standalone="no"?>
      <svg
         xmlns:svg="http://www.w3.org/2000/svg"
         xmlns="http://www.w3.org/2000/svg"
         version="1.1"
         width="51.60000000000002px"
         height="90.6px"
         id="svg-IN">
        <defs
           id="defs-IN" />
        <!--
          Bounds: {"minX":618.5999999999999,"x1":618.5999999999999,"minY":210.19999999999996,"y1":210.19999999999996,"maxX":670.1999999999999,"x2":670.1999999999999,"maxY":300.79999999999995,"y2":300.79999999999995,"width":51.60000000000002,"height":90.6}
        -->
        <g
           transform="translate(51.60000000000002,90.6)"
           id="state-layer">
          <path id="IN" d="M622.9 216.1l1.5 1 1.1-.3 2.1-1.9 2.5-1.8 14.3-1.1 18.4-1.8 1.6 15.5 4.9 42.6-.6 2.9 1.3 1.6.2 1.3-2.3 1.6-3.6 1.7-3.2.4-.5 4.8-4.7 3.6-2.9 4 .2 2.4-.5 1.4h-3.5l-1.4-1.7-5.2 3 .2 3.1-.9.2-.5-.9-2.4-1.7-3.6 1.5-1.4 2.9-1.2-.6-1.6-1.8-4.4.5-5.7 1-2.5 1.3v-2.6l.4-4.7 2.3-2.9 1.8-3.9 2.7-4.2-.5-5.8-1.8-3.1-.3-3.2.8-5.3-.7-7.1-.9-12.6-2.5-30.1z"></path>
        </g>
      </svg>