<?xml version="1.0" encoding="UTF-8" standalone="no"?>
      <svg
         xmlns:svg="http://www.w3.org/2000/svg"
         xmlns="http://www.w3.org/2000/svg"
         version="1.1"
         width="98.59999999999991px"
         height="86.70000000000005px"
         id="svg-LA">
        <defs
           id="defs-LA" />
        <!--
          Bounds: {"minX":516.5999999999998,"x1":516.5999999999998,"minY":412.90000000000003,"y1":412.90000000000003,"maxX":615.1999999999997,"x2":615.1999999999997,"maxY":499.6000000000001,"y2":499.6000000000001,"width":98.59999999999991,"height":86.70000000000005}
        -->
        <g
           transform="translate(98.59999999999991,86.70000000000005)"
           id="state-layer">
          <path id="LA" d="M526.9 485.9l8.1-.3 10.3 3.6 6.5 1.1 3.7-1.5 3.2 1.1 3.2 1 .8-2.1-3.2-1.1-2.6.5-2.7-1.6.8-1.5 3.1-1 1.8 1.5 1.8-1 3.2.6 1.5 2.4.3 2.3 4.5.3 1.8 1.8-.8 1.6-1.3.8 1.6 1.6 8.4 3.6 3.6-1.3 1-2.4 2.6-.6 1.8-1.5 1.3 1 .8 2.9-2.3.8.6.6 3.4-1.3 2.3-3.4.8-.5-2.1-.3.8-1.6-.2-1.5 2.1-.5 1.1-1.3.6.8.6 3.1 4.2.6 4 1.9 1 1.5h2.9l1.1 1 2.3-3.1V493h-1.3l-3.4-2.7-5.8-.8-3.2-2.3 1.1-2.7 2.3.3.2-.6-1.8-1v-.5h3.2l1.8-3.1-1.3-1.9-.3-2.7-1.5.2-1.9 2.1-.6 2.6-3.1-.6-1-1.8 1.8-1.9 1.9-1.7-2.2-6.5-3.4-3.4 1-7.3-.2-.5-1.3.2-33.1 1.4-.8-2.4.8-8.5 8.6-14.8-.9-2.6 1.4-.4.4-2-2.2-2 .1-1.9-2-4.5-.4-5.1.1-.7-26.4.8-25.2.1.4 9.7.7 9.5.5 3.7 2.6 4.5.9 4.4 4.3 6 .3 3.1.6.8-.7 8.3-2.8 4.6 1.2 2.4-.5 2.6-.8 7.3-1.3 3 .2 3.7z"></path>
        </g>
      </svg>