<?xml version="1.0" encoding="UTF-8" standalone="no"?>
      <svg
         xmlns:svg="http://www.w3.org/2000/svg"
         xmlns="http://www.w3.org/2000/svg"
         version="1.1"
         width="61.499999999999886px"
         height="32.60000000000005px"
         id="svg-MA">
        <defs
           id="defs-MA" />
        <!--
          Bounds: {"minX":843.2000000000002,"x1":843.2000000000002,"minY":142.99999999999997,"y1":142.99999999999997,"maxX":904.7,"x2":904.7,"maxY":175.60000000000002,"y2":175.60000000000002,"width":61.499999999999886,"height":32.60000000000005}
        -->
        <g
           transform="translate(61.499999999999886,32.60000000000005)"
           id="state-layer">
          <path id="MA" d="M887.5 172.5l-.5-2.3.8-1.5 2.9-1.5.8 3.1-.5 1.8-2.4 1.5v1l1.9-1.5 3.9-4.5 3.9-1.9 4.2-1.5-.3-2.4-1-2.9-1.9-2.4-1.8-.8-2.1.2-.5.5 1 1.3 1.5-.8 2.1 1.6.8 2.7-1.8 1.8-2.3 1-3.6-.5-3.9-6-2.3-2.6h-1.8l-1.1.8-1.9-2.6.3-1.5 2.4-5.2-2.9-4.4-3.7 1.8-1.8 2.9-18.3 4.7-13.8 2.5-.6 10.6.7 4.9 22-4.8 11.2-2.8 2 1.6 3.4 4.3 2.9 4.7zm12.5 1.4l2.2-.7.5-1.7 1 .1 1 2.3-1.3.5-3.9.1zm-9.4.8l2.3-2.6h1.6l1.8 1.5-2.4 1-2.2 1z"></path>
        </g>
      </svg>