<?xml version="1.0" encoding="UTF-8" standalone="no"?>
      <svg
         xmlns:svg="http://www.w3.org/2000/svg"
         xmlns="http://www.w3.org/2000/svg"
         version="1.1"
         width="62.899999999999864px"
         height="100.19999999999995px"
         id="svg-ME">
        <defs
           id="defs-ME" />
        <!--
          Bounds: {"minX":864.4999999999995,"x1":864.4999999999995,"minY":36.90000000000002,"y1":36.90000000000002,"maxX":927.3999999999994,"x2":927.3999999999994,"maxY":137.09999999999997,"y2":137.09999999999997,"width":62.899999999999864,"height":100.19999999999995}
        -->
        <g
           transform="translate(62.899999999999864,100.19999999999995)"
           id="state-layer">
          <path id="ME" d="M865.8 91.9l1.5.4v-2.6l.8-5.5 2.6-4.7 1.5-4-1.9-2.4v-6l.8-1 .8-2.7-.2-1.5-.2-4.8 1.8-4.8 2.9-8.9 2.1-4.2h1.3l1.3.2v1.1l1.3 2.3 2.7.6.8-.8v-1l4-2.9 1.8-1.8 1.5.2 6 2.4 1.9 1 9.1 29.9h6l.8 1.9.2 4.8 2.9 2.3h.8l.2-.5-.5-1.1 2.8-.5 1.9 2.1 2.3 3.7V85l-2.1 4.7-1.9.6-3.4 3.1-4.8 5.5h-1.3c-.6 0-1-2.1-1-2.1l-1.8.2-1 1.5-2.4 1.5-1 1.5 1.6 1.5-.5.6-.5 2.7-1.9-.2v-1.6l-.3-1.3-1.5.3-1.8-3.2-2.1 1.3 1.3 1.5.3 1.1-.8 1.3.3 3.1.2 1.6-1.6 2.6-2.9.5-.3 2.9-5.3 3.1-1.3.5-1.6-1.5-3.1 3.6 1 3.2-1.5 1.3-.2 4.4-1.1 6.3-2.2-.9-.5-3.1-4-1.1-.2-2.5-11.7-37.43zm36.5 15.6l1.5-1.5 1.4 1.1.6 2.4-1.7.9zm6.7-5.9l1.8 1.9s1.3.1 1.3-.2c0-.3.2-2 .2-2l.9-.8-.8-1.8-2 .7z"></path>
        </g>
      </svg>