<?xml version="1.0" encoding="UTF-8" standalone="no"?>
      <svg
         xmlns:svg="http://www.w3.org/2000/svg"
         xmlns="http://www.w3.org/2000/svg"
         version="1.1"
         width="115.00000000000006px"
         height="101.00000000000003px"
         id="svg-MO">
        <defs
           id="defs-MO" />
        <!--
          Bounds: {"minX":485.40000000000003,"x1":485.40000000000003,"minY":244.09999999999994,"y1":244.09999999999994,"maxX":600.4000000000001,"x2":600.4000000000001,"maxY":345.09999999999997,"y2":345.09999999999997,"width":115.00000000000006,"height":101.00000000000003}
        -->
        <g
           transform="translate(115.00000000000006,101.00000000000003)"
           id="state-layer">
          <path id="MO" d="M593.1 338.7l.5-5.9 4.2-3.4 1.9-1v-2.9l.7-1.6-1.1-1.6-2.4.3-2.1-2.5-1.7-4.5.9-2.6-2-3.2-1.8-4.6-4.6-.7-6.8-5.6-2.2-4.2.8-3.3 2.2-6 .6-3-1.9-1-6.9-.6-1.1-1.9v-4.1l-5.3-3.5-7.2-7.8-2.3-7.3-.5-4.2.7-2.4-2.6-3.1-1.2-2.4-7.7.8-10 .6-48.8 1.2 1.3 2.6-.1 2.2 2.3 3.6 3 3.9 3.1 3 2.6.2 1.4 1.1v2.9l-1.8 1.6-.5 2.3 2.1 3.2 2.4 3 2.6 2.1 1.3 11.6-.8 40 .5 5.7 23.7-.2 23.3-.7 32.5-1.3 2.2 3.7-.8 3.1-3.1 2.5-.5 1.8 5.2.5 4.1-1.1z"></path>
        </g>
      </svg>