<?xml version="1.0" encoding="UTF-8" standalone="no"?>
      <svg
         xmlns:svg="http://www.w3.org/2000/svg"
         xmlns="http://www.w3.org/2000/svg"
         version="1.1"
         width="61.400000000000205px"
         height="108.5px"
         id="svg-MS">
        <defs
           id="defs-MS" />
        <!--
          Bounds: {"minX":563.2999999999997,"x1":563.2999999999997,"minY":364.8,"y1":364.8,"maxX":624.6999999999999,"x2":624.6999999999999,"maxY":473.3,"y2":473.3,"width":61.400000000000205,"height":108.5}
        -->
        <g
           transform="translate(61.400000000000205,108.5)"
           id="state-layer">
          <path id="MS" d="M604.3 472.5l2.6-4.2 1.8.8 6.8-1.9 2.1.3 1.5.8h5.2l.4-1.6-1.7-14.8-2.8-19 1-45.1-.2-16.7.2-6.3-4.8.3-19.6 1.6-13 .4-.2 3.2-2.8 1.3-2.6 5.1.5 1.6.1 2.4-2.9 1.1-3.5 5.1.8 2.3-3 2.5-1 5.7-.6 1.9 1.6 2.5-1.5 1.4 1.5 2.8.3 4.2-1.2 2.5-.2.9.4 5 2 4.5-.1 1.7 2.3 2-.7 3.1-.9.3.6 1.9-8.6 15-.8 8.2.5 1.5 24.2-.7 8.2-.7 1.9-.3.6 1.4-1 7.1 3.3 3.3 2.2 6.4z"></path>
        </g>
      </svg>