<?xml version="1.0" encoding="UTF-8" standalone="no"?>
      <svg
         xmlns:svg="http://www.w3.org/2000/svg"
         xmlns="http://www.w3.org/2000/svg"
         version="1.1"
         width="142.30000000000007px"
         height="70.90000000000006px"
         id="svg-NE">
        <defs
           id="defs-NE" />
        <!--
          Bounds: {"minX":348.1,"x1":348.1,"minY":187.70000000000002,"y1":187.70000000000002,"maxX":490.4000000000001,"x2":490.4000000000001,"maxY":258.6000000000001,"y2":258.6000000000001,"width":142.30000000000007,"height":70.90000000000006}
        -->
        <g
           transform="translate(142.30000000000007,70.90000000000006)"
           id="state-layer">
          <path id="NE" d="M470.3 204.3l-1-2.3-.5-1.6-2.9-1.6-4.8-1.5-2.2-1.2-2.6.1-3.7.4-4.2 1.2-6-4.1-2.2-2-10.7.6-41.5-2.4-35.6-2.2-4.3 43.7 33.1 3.3-1.4 21.1 21.7 1 40.6 1.2 43.8.6h4.5l-2.2-3-2.6-3.9.1-2.3-1.4-2.7-1.9-5.2-.4-6.7-1.4-4.1-.5-5-2.3-3.7-1-4.7-2.8-7.9-1-5.3z"></path>
        </g>
      </svg>