<?xml version="1.0" encoding="UTF-8" standalone="no"?>
      <svg
         xmlns:svg="http://www.w3.org/2000/svg"
         xmlns="http://www.w3.org/2000/svg"
         version="1.1"
         width="27.800000000000182px"
         height="59.37999999999997px"
         id="svg-NH">
        <defs
           id="defs-NH" />
        <!--
          Bounds: {"minX":854.9999999999999,"x1":854.9999999999999,"minY":92.22000000000006,"y1":92.22000000000006,"maxX":882.8000000000001,"x2":882.8000000000001,"maxY":151.60000000000002,"y2":151.60000000000002,"width":27.800000000000182,"height":59.37999999999997}
        -->
        <g
           transform="translate(27.800000000000182,59.37999999999997)"
           id="state-layer">
          <path id="NH" d="M881.7 141.3l1.1-3.2-2.7-1.2-.5-3.1-4.1-1.1-.3-3-11.7-37.48-.7.08-.6 1.6-.6-.5-1-1-1.5 1.9-.2 2.29.5 8.41 1.9 2.8v4.3l-3.9 4.8-2.4.9v.7l1.1 1.9v8.6l-.8 9.2-.2 4.7 1 1.4-.2 4.7-.5 1.5 1 1.1 5.1-1.2 13.8-3.5 1.7-2.9 4-1.9z"></path>
        </g>
      </svg>