<?xml version="1.0" encoding="UTF-8" standalone="no"?>
      <svg
         xmlns:svg="http://www.w3.org/2000/svg"
         xmlns="http://www.w3.org/2000/svg"
         version="1.1"
         width="23.700000000000273px"
         height="54px"
         id="svg-NJ">
        <defs
           id="defs-NJ" />
        <!--
          Bounds: {"minX":822.6,"x1":822.6,"minY":189.9,"y1":189.9,"maxX":846.3000000000003,"x2":846.3000000000003,"maxY":243.9,"y2":243.9,"width":23.700000000000273,"height":54}
        -->
        <g
           transform="translate(23.700000000000273,54)"
           id="state-layer">
          <path id="NJ" d="M823.7 228.3l.1-1.5 2.7-1.3 1.7-2.8 1.7-2.4 3.3-3.2v-1.2l-6.1-4.1-1-2.7-2.7-.3-.1-.9-.7-2.2 2.2-1.1.2-2.9-1.3-1.3.2-1.2 1.9-3.1V193l2.5-3.1 5.6 2.5 6.4 1.9 2.5 1.2.1 1.8-.5 2.7.4 4.5-2.1 1.9-1.1 1 .5.5 2.7-.3 1.1-.8 1.6 3.4.2 9.4.6 1.1-1.1 5.5-3.1 6.5-2.7 4-.8 4.8-2.1 2.4h-.8l-.3-2.7.8-1-.2-1.5-4-.6-4.8-2.3-3.2-2.9-1-2z"></path>
        </g>
      </svg>