<?xml version="1.0" encoding="UTF-8" standalone="no"?>
      <svg
         xmlns:svg="http://www.w3.org/2000/svg"
         xmlns="http://www.w3.org/2000/svg"
         version="1.1"
         width="72.60000000000014px"
         height="82.00000000000009px"
         id="svg-OH">
        <defs
           id="defs-OH" />
        <!--
          Bounds: {"minX":663.8,"x1":663.8,"minY":195.4,"y1":195.4,"maxX":736.4000000000001,"x2":736.4000000000001,"maxY":277.4000000000001,"y2":277.4000000000001,"width":72.60000000000014,"height":82.00000000000009}
        -->
        <g
           transform="translate(72.60000000000014,82.00000000000009)"
           id="state-layer">
          <path id="OH" d="M663.8 211.2l1.7 15.5 4.8 41.1 3.9-.2 2.3-.8 3.6 1.8 1.7 4.2 5.4.1 1.8 2h1.7l2.4-1.4 3.1.5 1.5 1.3 1.8-2 2.3-1.4 2.4-.4.6 2.7 1.6 1 2.6 2 .8.2 2-.1 1.2-.6v-2.1l1.7-1.5.1-4.8 1.1-4.2 1.9-1.3 1 .7 1 1.1.7.2.4-.4-.9-2.7v-2.2l1.1-1.4 2.5-3.6 1.3-1.5 2.2.5 2.1-1.5 3-3.3 2.2-3.7.2-5.4.5-5V230l-1.2-3.2 1.2-1.8 1.3-1.2-.6-2.8-4.3-25.6-6.2 3.7-3.9 2.3-3.4 3.7-4 3.9-3.2.8-2.9.5-5.5 2.6-2.1.2-3.4-3.1-5.2.6-2.6-1.5-2.2-1.3z"></path>
        </g>
      </svg>