<?xml version="1.0" encoding="UTF-8" standalone="no"?>
      <svg
         xmlns:svg="http://www.w3.org/2000/svg"
         xmlns="http://www.w3.org/2000/svg"
         version="1.1"
         width="99.79999999999973px"
         height="64.30000000000001px"
         id="svg-PA">
        <defs
           id="defs-PA" />
        <!--
          Bounds: {"minX":732.4000000000001,"x1":732.4000000000001,"minY":178.79999999999998,"y1":178.79999999999998,"maxX":832.1999999999998,"x2":832.1999999999998,"maxY":243.1,"y2":243.1,"width":99.79999999999973,"height":64.30000000000001}
        -->
        <g
           transform="translate(99.79999999999973,64.30000000000001)"
           id="state-layer">
          <path id="PA" d="M736.6 192.2l1.3-.5 5.7-5.5.7 6.9 33.5-6.5 36.9-7.8 2.3 2.3 3.1.4 2 5.6 2.4 1.9 2.8.4.1.1-2.6 3.2v3.1l-1.9 3.1-.2 1.9 1.3 1.3-.2 1.9-2.4 1.1 1 3.4.2 1.1 2.8.3.9 2.5 5.9 3.9v.4l-3.1 3-1.5 2.2-1.7 2.8-2.7 1.2-1.4.3-2.1 1.3-1.6 1.4-22.4 4.3L757 241l-11.3 1.4-3.9.7-5.1-22.4-4.3-25.9z"></path>
        </g>
      </svg>