<?xml version="1.0" encoding="UTF-8" standalone="no"?>
      <svg
         xmlns:svg="http://www.w3.org/2000/svg"
         xmlns="http://www.w3.org/2000/svg"
         version="1.1"
         width="88.20000000000016px"
         height="66.59999999999997px"
         id="svg-SC">
        <defs
           id="defs-SC" />
        <!--
          Bounds: {"minX":708,"x1":708,"minY":347.00000000000006,"y1":347.00000000000006,"maxX":796.2000000000002,"x2":796.2000000000002,"maxY":413.6,"y2":413.6,"width":88.20000000000016,"height":66.59999999999997}
        -->
        <g
           transform="translate(88.20000000000016,66.59999999999997)"
           id="state-layer">
          <path id="SC" d="M759 413.6l-2.1-1-1.9-5.6-2.5-2.3-2.5-.5-1.5-4.6-3-6.5-4.2-1.8-1.9-1.8-1.2-2.6-2.4-2-2.3-1.3-2.2-2.9-3.2-2.4-4.4-1.7-.4-1.4-2.3-2.8-.5-1.5-3.8-5.4-3.4.1-3.9-2.5-1.2-1.2-.2-1.4.6-1.6 2.7-1.3-.8-2 6.4-2.7 9.2-4.5 7.1-.9 16.4-.5 2.3 1.9 1.8 3.5 4.6-.8 12.6-1.5 2.7.8 12.5 7.4 10.1 8.3-5.3 5.4-2.6 6.1-.5 6.3-1.6.8-1.1 2.7-2.4.6-2.1 3.6-2.7 2.7-2.3 3.4-1.6.8-3.6 3.4-2.9.2 1 3.2-5 5.3-2.3 1.6z"></path>
        </g>
      </svg>