<?xml version="1.0" encoding="UTF-8" standalone="no"?>
      <svg
         xmlns:svg="http://www.w3.org/2000/svg"
         xmlns="http://www.w3.org/2000/svg"
         version="1.1"
         width="120.79999999999995px"
         height="80.29999999999998px"
         id="svg-SD">
        <defs
           id="defs-SD" />
        <!--
          Bounds: {"minX":352.5,"x1":352.5,"minY":123,"y1":123,"maxX":473.29999999999995,"x2":473.29999999999995,"maxY":203.29999999999998,"y2":203.29999999999998,"width":120.79999999999995,"height":80.29999999999998}
        -->
        <g
           transform="translate(120.79999999999995,80.29999999999998)"
           id="state-layer">
          <path id="SD" d="M471 181.1l-.9 3.2.4 3 2.6 2-1.2 5.4-1.8 4.1 1.5 3.3.7 1.1-1.3.1-.7-1.6-.6-2-3.3-1.8-4.8-1.5-2.5-1.3-2.9.1-3.9.4-3.8 1.2-5.3-3.8-2.7-2.4-10.9.8-41.5-2.4-35.6-2.2L354 162l2.8-34 .4-5 56.9 3.9 56.9 1.7v2.7l-1.3 1.5-2 1.5-.1 2.2 1.1 2.2 4.1 3.4.5 2.7v35.9z"></path>
        </g>
      </svg>