<?xml version="1.0" encoding="UTF-8" standalone="no"?>
      <svg
         xmlns:svg="http://www.w3.org/2000/svg"
         xmlns="http://www.w3.org/2000/svg"
         version="1.1"
         width="145.39999999999975px"
         height="50.200000000000045px"
         id="svg-TN">
        <defs
           id="defs-TN" />
        <!--
          Bounds: {"minX":585,"x1":585,"minY":315.8999999999999,"y1":315.8999999999999,"maxX":730.3999999999997,"x2":730.3999999999997,"maxY":366.09999999999997,"y2":366.09999999999997,"width":145.39999999999975,"height":50.200000000000045}
        -->
        <g
           transform="translate(145.39999999999975,50.200000000000045)"
           id="state-layer">
          <path id="TN" d="M670.8 359.6l-13.1 1.2-23.3 2.2-37.6 2.7-11.8.4.9-.6.9-4.5-1.2-3.6 3.9-2.3.4-2.5 1.2-4.3 3-9.5.5-5.6.3-.2 12.3-.2 13.6-.8.1-3.9 3.5-.1 30.4-3.3 54-5.2 10.3-1.5 7.6-.2 2.4-1.9 1.3.3-.1 3.3-.4 1.6-2.4 2.2-1.6 3.6-2-.4-2.4.9-2.2 3.3-1.4-.2-.8-1.2-1.1.4-4.3 4-.8 3.1-4.2 2.2-4.3 3.6-3.8 1.5-4.4 2.8-.6 3.6-2.5.5-2 1.7-.2 4.8z"></path>
        </g>
      </svg>