<?xml version="1.0" encoding="UTF-8" standalone="no"?>
      <svg
         xmlns:svg="http://www.w3.org/2000/svg"
         xmlns="http://www.w3.org/2000/svg"
         version="1.1"
         width="116.1px"
         height="84.81px"
         id="svg-WA">
        <defs
           id="defs-WA" />
        <!--
          Bounds: {"minX":58.20000000000001,"x1":58.20000000000001,"minY":6.4,"y1":6.4,"maxX":174.3,"x2":174.3,"maxY":91.21000000000001,"y2":91.21000000000001,"width":116.1,"height":84.81}
        -->
        <g
           transform="translate(116.1,84.81)"
           id="state-layer">
          <path id="WA" d="M74.5 67.7l-2.3-4.3-4.1-.7-.4-2.4-2.5-.6-2.9-.5-1.8 1-2.3-2.9.3-2.9 2.7-.3 1.6-4-2.6-1.1.2-3.7 4.4-.6-2.7-2.7-1.5-7.1.6-2.9v-7.9l-1.8-3.2 2.3-9.4 2.1.5 2.4 2.9 2.7 2.6 3.2 1.9 4.5 2.1 3.1.6 2.9 1.5 3.4 1 2.3-.2V22l1.3-1.1 2.1-1.3.3 1.1.3 1.8-2.3.5-.3 2.1 1.8 1.5 1.1 2.4.6 1.9 1.5-.2.2-1.3-1-1.3-.5-3.2.8-1.8-.6-1.5V19l1.8-3.6-1.1-2.6L91.9 8l.3-.8 1.4-.8L98 7.9l9.7 2.7 8.6 1.9 20 5.7 23 5.7 15 3.49-4.8 17.56-4.5 20.83-3.4 16.25-.4 9.18-12.9-3.72-15.3-3.47-14.5.32-1.1-1.53-5.7 2.09-3.9-.42-2.6-1.79-1.7.65-4.15-.25-1.72-1.32-5.16-1.82-1.18-.16-4.8-1.39-1.92 1.65-5.65-.25-4.61-3.35zm9.6-55.4l2-.2.5 1.4 1.5-1.6h2.3l.8 1.5-1.5 1.7.6.8-.7 2-1.4.4s-.9.1-.9-.2c0-.3 1.5-2.6 1.5-2.6l-1.7-.6-.3 1.5-.7.6-1.5-2.3z"></path>
        </g>
      </svg>