<?xml version="1.0" encoding="UTF-8" standalone="no"?>
      <svg
         xmlns:svg="http://www.w3.org/2000/svg"
         xmlns="http://www.w3.org/2000/svg"
         version="1.1"
         width="91.39999999999998px"
         height="96.1px"
         id="svg-WI">
        <defs
           id="defs-WI" />
        <!--
          Bounds: {"minX":529.4000000000001,"x1":529.4000000000001,"minY":103.9,"y1":103.9,"maxX":620.8000000000001,"x2":620.8000000000001,"maxY":200,"y2":200,"width":91.39999999999998,"height":96.1}
        -->
        <g
           transform="translate(91.39999999999998,96.1)"
           id="state-layer">
          <path id="WI" d="M541.4 109.9l2.9.5 2.9-.6 7.4-3.2 2.9-1.9 2.1-.8 1.9 1.5-1.1 1.1-1.9 3.1-.6 1.9 1 .6 1.8-1 1.1-.2 2.7.8.6 1.1 1.1.2.6-1.1 4 5.3 8.2 1.2 8.2 2.2 2.6 1.1 12.3 2.6 1.6 2.3 3.6 1.2L609 138l1.6 1.4 1.5.9-1.1 2.3-1.8 1.6-2.1 4.7-1.3 2.4.2 1.8 1.5.3 1.1-1.9 1.5-.8.8-2.3 1.9-1.8 2.7-4 4.2-6.3.8-.5.3 1-.2 2.3-2.9 6.8-2.7 5.7-.5 3.2-.6 2.6.8 1.3-.2 2.7-1.9 2.4-.5 1.8.6 3.6.6 3.4-1.5 2.6-.8 2.9-1 3.1 1.1 2.4.6 6.1 1.6 4.5-.2 3-15.9 1.8-17.5 1H567l-.7-1.5-2.9-.4-2.6-1.3-2.3-3.7-.3-3.6 2-2.9-.5-1.4-2.1-2.2-.8-3.3-.6-6.8-2.1-2.5-7-4.5-3.8-5.4-3.4-1-2.2-2.8h-3.2l-2.9-3.3-.5-6.5.1-3.8 1.5-3.1-.8-3.2-2.5-2.8 1.8-5.4 5.2-3.8 1.6-1.9-.2-8.1.2-2.8 2.4-2.8z"></path>
        </g>
      </svg>